<svg width="545" height="47" viewBox="0 0 545 47" fill="none" xmlns="http://www.w3.org/2000/svg">
<rect y="23" width="545" height="5" fill="#616161"/>
<rect width="105" height="40" rx="7" fill="#9575CD"/>
<circle cx="12" cy="37" r="10" fill="#757575"/>
<circle cx="32" cy="37" r="10" fill="#757575"/>
<circle cx="72" cy="37" r="10" fill="#757575"/>
<circle cx="92" cy="37" r="10" fill="#757575"/>
<rect x="110" width="105" height="40" rx="7" fill="#FFB74D"/>
<circle cx="122" cy="37" r="10" fill="#757575"/>
<circle cx="142" cy="37" r="10" fill="#757575"/>
<circle cx="182" cy="37" r="10" fill="#757575"/>
<circle cx="202" cy="37" r="10" fill="#757575"/>
<rect x="220" width="105" height="40" rx="7" fill="#81C784"/>
<circle cx="232" cy="37" r="10" fill="#757575"/>
<circle cx="252" cy="37" r="10" fill="#757575"/>
<circle cx="292" cy="37" r="10" fill="#757575"/>
<circle cx="312" cy="37" r="10" fill="#757575"/>
<rect x="330" width="105" height="40" rx="7" fill="#42A5F5"/>
<circle cx="342" cy="37" r="10" fill="#757575"/>
<circle cx="362" cy="37" r="10" fill="#757575"/>
<circle cx="402" cy="37" r="10" fill="#757575"/>
<circle cx="422" cy="37" r="10" fill="#757575"/>
<rect x="440" width="105" height="40" rx="7" fill="#E57373"/>
<circle cx="452" cy="37" r="10" fill="#757575"/>
<circle cx="472" cy="37" r="10" fill="#757575"/>
<circle cx="512" cy="37" r="10" fill="#757575"/>
<circle cx="532" cy="37" r="10" fill="#757575"/>
</svg>
