<svg width="1445" height="50" viewBox="0 0 1445 50" fill="none" xmlns="http://www.w3.org/2000/svg">
<rect width="3" height="50" fill="#795548"/>
<rect x="3" width="2" height="50" fill="#5D4037"/>
<rect x="15" width="3" height="50" fill="#795548"/>
<rect x="18" width="2" height="50" fill="#5D4037"/>
<rect x="30" width="3" height="50" fill="#795548"/>
<rect x="33" width="2" height="50" fill="#5D4037"/>
<rect x="45" width="3" height="50" fill="#795548"/>
<rect x="48" width="2" height="50" fill="#5D4037"/>
<rect x="60" width="3" height="50" fill="#795548"/>
<rect x="63" width="2" height="50" fill="#5D4037"/>
<rect x="75" width="3" height="50" fill="#795548"/>
<rect x="78" width="2" height="50" fill="#5D4037"/>
<rect x="90" width="3" height="50" fill="#795548"/>
<rect x="93" width="2" height="50" fill="#5D4037"/>
<rect x="105" width="3" height="50" fill="#795548"/>
<rect x="108" width="2" height="50" fill="#5D4037"/>
<rect x="120" width="3" height="50" fill="#795548"/>
<rect x="123" width="2" height="50" fill="#5D4037"/>
<rect x="135" width="3" height="50" fill="#795548"/>
<rect x="138" width="2" height="50" fill="#5D4037"/>
<rect x="150" width="3" height="50" fill="#795548"/>
<rect x="153" width="2" height="50" fill="#5D4037"/>
<rect x="165" width="3" height="50" fill="#795548"/>
<rect x="168" width="2" height="50" fill="#5D4037"/>
<rect x="180" width="3" height="50" fill="#795548"/>
<rect x="183" width="2" height="50" fill="#5D4037"/>
<rect x="195" width="3" height="50" fill="#795548"/>
<rect x="198" width="2" height="50" fill="#5D4037"/>
<rect x="210" width="3" height="50" fill="#795548"/>
<rect x="213" width="2" height="50" fill="#5D4037"/>
<rect x="225" width="3" height="50" fill="#795548"/>
<rect x="228" width="2" height="50" fill="#5D4037"/>
<rect x="240" width="3" height="50" fill="#795548"/>
<rect x="243" width="2" height="50" fill="#5D4037"/>
<rect x="255" width="3" height="50" fill="#795548"/>
<rect x="258" width="2" height="50" fill="#5D4037"/>
<rect x="270" width="3" height="50" fill="#795548"/>
<rect x="273" width="2" height="50" fill="#5D4037"/>
<rect x="285" width="3" height="50" fill="#795548"/>
<rect x="288" width="2" height="50" fill="#5D4037"/>
<rect x="300" width="3" height="50" fill="#795548"/>
<rect x="303" width="2" height="50" fill="#5D4037"/>
<rect x="315" width="3" height="50" fill="#795548"/>
<rect x="318" width="2" height="50" fill="#5D4037"/>
<rect x="330" width="3" height="50" fill="#795548"/>
<rect x="333" width="2" height="50" fill="#5D4037"/>
<rect x="345" width="3" height="50" fill="#795548"/>
<rect x="348" width="2" height="50" fill="#5D4037"/>
<rect x="360" width="3" height="50" fill="#795548"/>
<rect x="363" width="2" height="50" fill="#5D4037"/>
<rect x="375" width="3" height="50" fill="#795548"/>
<rect x="378" width="2" height="50" fill="#5D4037"/>
<rect x="390" width="3" height="50" fill="#795548"/>
<rect x="393" width="2" height="50" fill="#5D4037"/>
<rect x="405" width="3" height="50" fill="#795548"/>
<rect x="408" width="2" height="50" fill="#5D4037"/>
<rect x="420" width="3" height="50" fill="#795548"/>
<rect x="423" width="2" height="50" fill="#5D4037"/>
<rect x="435" width="3" height="50" fill="#795548"/>
<rect x="438" width="2" height="50" fill="#5D4037"/>
<rect x="450" width="3" height="50" fill="#795548"/>
<rect x="453" width="2" height="50" fill="#5D4037"/>
<rect x="465" width="3" height="50" fill="#795548"/>
<rect x="468" width="2" height="50" fill="#5D4037"/>
<rect x="960" width="3" height="50" fill="#795548"/>
<rect x="963" width="2" height="50" fill="#5D4037"/>
<rect x="975" width="3" height="50" fill="#795548"/>
<rect x="978" width="2" height="50" fill="#5D4037"/>
<rect x="990" width="3" height="50" fill="#795548"/>
<rect x="993" width="2" height="50" fill="#5D4037"/>
<rect x="1005" width="3" height="50" fill="#795548"/>
<rect x="1008" width="2" height="50" fill="#5D4037"/>
<rect x="1020" width="3" height="50" fill="#795548"/>
<rect x="1023" width="2" height="50" fill="#5D4037"/>
<rect x="1035" width="3" height="50" fill="#795548"/>
<rect x="1038" width="2" height="50" fill="#5D4037"/>
<rect x="1050" width="3" height="50" fill="#795548"/>
<rect x="1053" width="2" height="50" fill="#5D4037"/>
<rect x="1065" width="3" height="50" fill="#795548"/>
<rect x="1068" width="2" height="50" fill="#5D4037"/>
<rect x="1080" width="3" height="50" fill="#795548"/>
<rect x="1083" width="2" height="50" fill="#5D4037"/>
<rect x="1095" width="3" height="50" fill="#795548"/>
<rect x="1098" width="2" height="50" fill="#5D4037"/>
<rect x="1110" width="3" height="50" fill="#795548"/>
<rect x="1113" width="2" height="50" fill="#5D4037"/>
<rect x="1125" width="3" height="50" fill="#795548"/>
<rect x="1128" width="2" height="50" fill="#5D4037"/>
<rect x="1140" width="3" height="50" fill="#795548"/>
<rect x="1143" width="2" height="50" fill="#5D4037"/>
<rect x="1155" width="3" height="50" fill="#795548"/>
<rect x="1158" width="2" height="50" fill="#5D4037"/>
<rect x="1170" width="3" height="50" fill="#795548"/>
<rect x="1173" width="2" height="50" fill="#5D4037"/>
<rect x="1185" width="3" height="50" fill="#795548"/>
<rect x="1188" width="2" height="50" fill="#5D4037"/>
<rect x="1200" width="3" height="50" fill="#795548"/>
<rect x="1203" width="2" height="50" fill="#5D4037"/>
<rect x="1215" width="3" height="50" fill="#795548"/>
<rect x="1218" width="2" height="50" fill="#5D4037"/>
<rect x="1230" width="3" height="50" fill="#795548"/>
<rect x="1233" width="2" height="50" fill="#5D4037"/>
<rect x="1245" width="3" height="50" fill="#795548"/>
<rect x="1248" width="2" height="50" fill="#5D4037"/>
<rect x="1260" width="3" height="50" fill="#795548"/>
<rect x="1263" width="2" height="50" fill="#5D4037"/>
<rect x="1275" width="3" height="50" fill="#795548"/>
<rect x="1278" width="2" height="50" fill="#5D4037"/>
<rect x="1290" width="3" height="50" fill="#795548"/>
<rect x="1293" width="2" height="50" fill="#5D4037"/>
<rect x="1305" width="3" height="50" fill="#795548"/>
<rect x="1308" width="2" height="50" fill="#5D4037"/>
<rect x="1320" width="3" height="50" fill="#795548"/>
<rect x="1323" width="2" height="50" fill="#5D4037"/>
<rect x="1335" width="3" height="50" fill="#795548"/>
<rect x="1338" width="2" height="50" fill="#5D4037"/>
<rect x="1350" width="3" height="50" fill="#795548"/>
<rect x="1353" width="2" height="50" fill="#5D4037"/>
<rect x="1365" width="3" height="50" fill="#795548"/>
<rect x="1368" width="2" height="50" fill="#5D4037"/>
<rect x="1380" width="3" height="50" fill="#795548"/>
<rect x="1383" width="2" height="50" fill="#5D4037"/>
<rect x="1395" width="3" height="50" fill="#795548"/>
<rect x="1398" width="2" height="50" fill="#5D4037"/>
<rect x="1410" width="3" height="50" fill="#795548"/>
<rect x="1413" width="2" height="50" fill="#5D4037"/>
<rect x="1425" width="3" height="50" fill="#795548"/>
<rect x="1428" width="2" height="50" fill="#5D4037"/>
<rect x="1440" width="3" height="50" fill="#795548"/>
<rect x="1443" width="2" height="50" fill="#5D4037"/>
<rect x="480" width="3" height="50" fill="#795548"/>
<rect x="483" width="2" height="50" fill="#5D4037"/>
<rect x="495" width="3" height="50" fill="#795548"/>
<rect x="498" width="2" height="50" fill="#5D4037"/>
<rect x="510" width="3" height="50" fill="#795548"/>
<rect x="513" width="2" height="50" fill="#5D4037"/>
<rect x="525" width="3" height="50" fill="#795548"/>
<rect x="528" width="2" height="50" fill="#5D4037"/>
<rect x="540" width="3" height="50" fill="#795548"/>
<rect x="543" width="2" height="50" fill="#5D4037"/>
<rect x="555" width="3" height="50" fill="#795548"/>
<rect x="558" width="2" height="50" fill="#5D4037"/>
<rect x="570" width="3" height="50" fill="#795548"/>
<rect x="573" width="2" height="50" fill="#5D4037"/>
<rect x="585" width="3" height="50" fill="#795548"/>
<rect x="588" width="2" height="50" fill="#5D4037"/>
<rect x="600" width="3" height="50" fill="#795548"/>
<rect x="603" width="2" height="50" fill="#5D4037"/>
<rect x="615" width="3" height="50" fill="#795548"/>
<rect x="618" width="2" height="50" fill="#5D4037"/>
<rect x="630" width="3" height="50" fill="#795548"/>
<rect x="633" width="2" height="50" fill="#5D4037"/>
<rect x="645" width="3" height="50" fill="#795548"/>
<rect x="648" width="2" height="50" fill="#5D4037"/>
<rect x="660" width="3" height="50" fill="#795548"/>
<rect x="663" width="2" height="50" fill="#5D4037"/>
<rect x="675" width="3" height="50" fill="#795548"/>
<rect x="678" width="2" height="50" fill="#5D4037"/>
<rect x="690" width="3" height="50" fill="#795548"/>
<rect x="693" width="2" height="50" fill="#5D4037"/>
<rect x="705" width="3" height="50" fill="#795548"/>
<rect x="708" width="2" height="50" fill="#5D4037"/>
<rect x="720" width="3" height="50" fill="#795548"/>
<rect x="723" width="2" height="50" fill="#5D4037"/>
<rect x="735" width="3" height="50" fill="#795548"/>
<rect x="738" width="2" height="50" fill="#5D4037"/>
<rect x="750" width="3" height="50" fill="#795548"/>
<rect x="753" width="2" height="50" fill="#5D4037"/>
<rect x="765" width="3" height="50" fill="#795548"/>
<rect x="768" width="2" height="50" fill="#5D4037"/>
<rect x="780" width="3" height="50" fill="#795548"/>
<rect x="783" width="2" height="50" fill="#5D4037"/>
<rect x="795" width="3" height="50" fill="#795548"/>
<rect x="798" width="2" height="50" fill="#5D4037"/>
<rect x="810" width="3" height="50" fill="#795548"/>
<rect x="813" width="2" height="50" fill="#5D4037"/>
<rect x="825" width="3" height="50" fill="#795548"/>
<rect x="828" width="2" height="50" fill="#5D4037"/>
<rect x="840" width="3" height="50" fill="#795548"/>
<rect x="843" width="2" height="50" fill="#5D4037"/>
<rect x="855" width="3" height="50" fill="#795548"/>
<rect x="858" width="2" height="50" fill="#5D4037"/>
<rect x="870" width="3" height="50" fill="#795548"/>
<rect x="873" width="2" height="50" fill="#5D4037"/>
<rect x="885" width="3" height="50" fill="#795548"/>
<rect x="888" width="2" height="50" fill="#5D4037"/>
<rect x="900" width="3" height="50" fill="#795548"/>
<rect x="903" width="2" height="50" fill="#5D4037"/>
<rect x="915" width="3" height="50" fill="#795548"/>
<rect x="918" width="2" height="50" fill="#5D4037"/>
<rect x="930" width="3" height="50" fill="#795548"/>
<rect x="933" width="2" height="50" fill="#5D4037"/>
<rect x="945" width="3" height="50" fill="#795548"/>
<rect x="948" width="2" height="50" fill="#5D4037"/>
<rect y="42" width="1445" height="3" fill="#7F8C8D"/>
<rect y="35" width="1445" height="7" fill="#BDC3C7"/>
<rect y="12" width="1445" height="3" fill="#7F8C8D"/>
<rect y="5" width="1445" height="7" fill="#BDC3C7"/>
</svg>
